<svg xmlns="http://www.w3.org/2000/svg" xmlns:xlink="http://www.w3.org/1999/xlink" width="92" height="18" viewBox="0 0 92 18">
    <defs>
        <path id="pxx0g0y87a" d="M0 0.031L33.201 0.031 33.201 16.53 0 16.53z"/>
        <path id="i72pbv9woc" d="M0.164 0.102L30.3 0.102 30.3 14.433 0.164 14.433z"/>
    </defs>
    <g fill="none" fill-rule="evenodd">
        <g>
            <g>
                <g>
                    <g>
                        <g transform="translate(-318 -601) translate(268 525) translate(0 60) translate(50 16)">
                            <mask id="sbymjgx3tb" fill="#fff">
                                <use xlink:href="#pxx0g0y87a"/>
                            </mask>
                            <path fill="#FFF" d="M11.385 1.162c-.824 0-1.502.149-1.836.452-.227.206-.332.482-.332.883v8.198c0 1.363-.22 2.101-.704 2.62-.426.454-1.095.7-1.83.7-.72 0-1.356-.237-1.735-.636-.396-.417-.582-.994-.582-1.847v-5.34c0-.233-.088-.337-.347-.337H.371c-.257 0-.341.1-.341.34v4.826c0 1.925.499 3.026 1.37 3.894 1.133 1.126 3.07 1.63 4.91 1.63 1.837 0 3.752-.648 4.885-1.69 1.11 1.009 3.13 1.689 5.357 1.689 2.945 0 5.109-1.21 6.372-3.27.561.864.975 1.507 1.373 2.092.587.862 1.12 1.178 2.314 1.178 1.131 0 1.81-.27 2.422-1.2 1.604-2.44 2.971-5.326 3.957-7.982.123-.332.211-.574.211-.726 0-.155-.102-.277-.344-.353-.236-.075-.869-.268-1.186-.364-.527-.16-.718-.206-.832-.206-.214 0-.33.118-.404.363-.74 2.446-1.863 5.196-2.866 6.904-.33-.625-.937-1.71-1.5-2.688-.873-1.514-1.734-3.04-2.166-3.743-.437-.71-.73-.898-1.305-.898-1.186 0-2.941 1.058-2.941 2.045 0 .335.093.585.442 1.18.398.674.598 1.222.598 1.894 0 1.679-1.26 3.197-3.693 3.197-1.155 0-2.046-.325-2.627-.918-.553-.565-.823-1.327-.823-2.597V8.32c.406.174.904.26 1.504.26h1.926c.26 0 .35-.103.35-.337V6.192c0-.234-.09-.338-.35-.338h-3.43V2.497c0-.401-.105-.677-.332-.883-.335-.303-1.024-.452-1.837-.452M2.197 4.367C.84 4.367 0 3.407 0 2.2 0 .991.839.031 2.197.031c1.359 0 2.198.96 2.198 2.168 0 1.209-.84 2.168-2.198 2.168" mask="url(#sbymjgx3tb)"/>
                        </g>
                        <path fill="#FFF" d="M38.793 15.836c0 .405-.265.608-1.404.608-1.18 0-1.363-.203-1.363-.629V2.402h3.621l5.634 9.994V2.402h2.767v13.172c0 .667-.672.83-1.77.83-1.18 0-1.708-.163-1.953-.589l-5.532-9.71v9.731M59.673 2.402v2.387h-6.57v3.257h5.614v2.368h-5.614v3.541h6.692v2.388h-8.95c-.528 0-.711-.163-.711-.648V3.05c0-.487.183-.648.712-.648h8.827" transform="translate(-318 -601) translate(268 525) translate(0 60) translate(50 16)"/>
                        <g transform="translate(-318 -601) translate(268 525) translate(0 60) translate(50 16) translate(60.671 2.097)">
                            <mask id="buhpfqn9sd" fill="#fff">
                                <use xlink:href="#i72pbv9woc"/>
                            </mask>
                            <path fill="#FFF" d="M11.657.305c.366 0 .57.121.65.546l1.81 10.804h.265c.814-3.683 1.465-6.96 2.278-11.35h3.153c-.996 4.714-2.196 9.368-3.153 13.091-.162.607-.874.85-2.38.85-1.626 0-2.298-.243-2.4-.85l-1.83-10.4h-.204L8.158 13.294c-.101.605-.793.95-2.42.95-1.77 0-2.258-.283-2.4-.83C2.32 9.673 1.18 5.019.164.305h3.153c.814 4.39 1.485 7.667 2.299 11.35h.264L7.568.85c.061-.364.326-.546.692-.546h3.397M29.303 2.935c-1.18-.263-2.36-.405-3.276-.405-1.81 0-2.521.525-2.521 1.518 0 .404.1.748.366 1.012.284.303.854.485 1.566.687l1.363.384c1.403.406 2.196.81 2.746 1.457.55.668.753 1.558.753 2.59 0 3.177-2.056 4.27-5.533 4.27-1.384 0-2.97-.203-4.027-.566-.347-.122-.489-.325-.489-.668 0-.405.082-.85.183-1.254.102-.386.264-.527.427-.527.081 0 .224.02.407.081.997.283 2.217.505 3.499.505 1.81 0 2.542-.586 2.542-1.679 0-.405-.101-.809-.305-1.053-.285-.343-.794-.545-1.709-.788l-1.363-.365c-.976-.282-1.728-.646-2.277-1.132-.855-.75-1.221-1.76-1.221-3.016 0-2.327 1.75-3.884 5.289-3.884 1.403 0 2.786.182 3.763.425l-.183 2.408" mask="url(#buhpfqn9sd)"/>
                        </g>
                    </g>
                </g>
            </g>
        </g>
    </g>
</svg>